<!DOCTYPE svg PUBLIC "-//W3C//DTD SVG 1.1//EN" "http://www.w3.org/Graphics/SVG/1.1/DTD/svg11.dtd">
<!-- Uploaded to: SVG Repo, www.svgrepo.com, Transformed by: SVG Repo Mixer Tools -->
<svg fill="#e5e7eb" width="800px" height="800px" viewBox="0 -3.5 16 16" id="battery-full-16px" xmlns="http://www.w3.org/2000/svg" stroke="#e5e7eb" stroke-width="0.16">
<g id="SVGRepo_bgCarrier" stroke-width="0"/>
<g id="SVGRepo_tracerCarrier" stroke-linecap="round" stroke-linejoin="round"/>
<g id="SVGRepo_iconCarrier"> <path id="Path_168" data-name="Path 168" d="M34,11H26a1,1,0,0,1-1-1V7a1,1,0,0,1,1-1h8a1,1,0,0,1,1,1v3A1,1,0,0,1,34,11Zm3,.5V11h.5A1.5,1.5,0,0,0,39,9.5v-2A1.5,1.5,0,0,0,37.5,6H37V5.5A1.5,1.5,0,0,0,35.5,4h-11A1.5,1.5,0,0,0,23,5.5v6A1.5,1.5,0,0,0,24.5,13h11A1.5,1.5,0,0,0,37,11.5ZM35.5,5a.5.5,0,0,1,.5.5v1a.5.5,0,0,0,.5.5h1a.5.5,0,0,1,.5.5v2a.5.5,0,0,1-.5.5h-1a.5.5,0,0,0-.5.5v1a.5.5,0,0,1-.5.5h-11a.5.5,0,0,1-.5-.5v-6a.5.5,0,0,1,.5-.5Z" transform="translate(-23 -4)"/> </g>
</svg>